<svg width="28" height="28" viewBox="0 0 48 48" class="icon" version="1.1"
    xmlns="http://www.w3.org/2000/svg">
    <path d="M9.80257 38.8407C9.74724 38.8407 9.69078 38.8338 9.63469 38.8192C8.43577 38.5097 7.89885 37.8247 7.89343 36.5984C7.8867 35.0678 7.87903 33.3329 7.89754 31.6243C7.89866 31.5302 7.89418 31.4666 7.88875 31.4251C7.85473 31.4224 7.8065 31.4214 7.74069 31.4254C6.64441 31.4893 5.52457 31.4618 4.53672 31.4375C2.33443 31.3832 1.01979 30.0283 1.01979 27.8131C1.01979 26.4321 1.02204 25.0511 1.02428 23.6702C1.02989 20.0547 1.03587 16.3164 1.00016 12.6417C0.990814 11.688 1.38659 10.7125 2.05887 10.0322C2.71525 9.36785 3.57728 9.01554 4.55149 9.01339C12.5171 8.99535 20.5138 8.99554 28.319 9.01395C30.4063 9.019 31.7551 10.4028 31.7551 12.5396V15.2456C31.7555 19.5305 31.7557 23.8153 31.751 28.1003C31.7506 28.4247 31.7398 28.8015 31.6166 29.169C31.0694 30.7987 30.0645 31.4355 28.0326 31.4402C25.1915 31.4469 21.8235 31.4514 18.3883 31.4342C17.9978 31.4324 17.8218 31.4961 17.6364 31.6973C15.8317 33.6543 13.9783 35.6245 12.1858 37.5297L12.006 37.7208C11.5666 38.1878 10.9878 38.8027 10.0673 38.8027C10.0535 38.8027 10.0396 38.8025 10.0258 38.8022C9.95513 38.8272 9.87978 38.8407 9.80257 38.8407V38.8407ZM7.81958 30.0829C8.25499 30.0829 8.58814 30.198 8.83454 30.433C9.20358 30.7847 9.24135 31.2896 9.23761 31.6387C9.2191 33.3372 9.22676 35.0666 9.23349 36.5924C9.23593 37.1409 9.32697 37.3208 9.77042 37.4647C9.83586 37.4519 9.90353 37.4491 9.97327 37.457C10.3345 37.4978 10.5595 37.3024 11.0213 36.8118L11.2098 36.6115C13 34.7086 14.851 32.741 16.6512 30.7889C17.2232 30.1681 17.8785 30.0924 18.395 30.0941C21.826 30.1112 25.1907 30.107 28.0296 30.1002C29.6331 30.0963 30.0257 29.6968 30.3461 28.7425C30.4053 28.566 30.4106 28.3176 30.411 28.0987C30.4156 23.8144 30.4154 19.5301 30.4151 15.2457V12.5396C30.4151 11.1334 29.6695 10.3573 28.3156 10.354C20.5125 10.3354 12.5182 10.3352 4.55448 10.3535C3.94521 10.3549 3.41203 10.5694 3.01214 10.974C2.58551 11.4058 2.33425 12.0244 2.34023 12.6287C2.37594 16.3108 2.36996 20.0531 2.36435 23.6722C2.36211 25.0526 2.35986 26.4329 2.35986 27.8131C2.35986 29.293 3.10337 30.0617 4.56963 30.0978C5.53168 30.1218 6.62104 30.1487 7.66255 30.0876C7.7162 30.0845 7.76855 30.0829 7.81959 30.0829H7.81958Z" fill="#6A6C77"></path>
    <path d="M38.1489 41C37.8296 41 37.5469 40.7712 37.4897 40.446C37.4256 40.0815 37.6692 39.7341 38.0335 39.67C38.6241 39.5661 38.6858 39.3387 38.6929 38.4108C38.694 38.27 38.6951 38.1304 38.7015 37.9954C38.7688 36.5433 38.7398 35.042 38.7073 33.7487C38.6991 33.4175 38.7286 32.936 39.0801 32.5796C39.4327 32.222 39.9197 32.1855 40.2549 32.1893C41.7348 32.2062 42.864 32.1768 43.9167 32.0954C44.8868 32.0205 45.4901 31.3669 45.4914 30.3897C45.4992 24.508 45.4991 19.2628 45.491 14.3544C45.4891 13.2202 44.6082 12.4547 43.2986 12.4497C41.0049 12.4406 38.6722 12.4423 36.4162 12.4444C35.4663 12.4452 34.5164 12.4459 33.5665 12.4459C33.1965 12.4459 32.8965 12.146 32.8965 11.7759C32.8965 11.4058 33.1965 11.1059 33.5665 11.1059C34.516 11.1059 35.4656 11.1051 36.4151 11.1044C38.6727 11.1024 41.0072 11.1006 43.3039 11.1096C45.3446 11.1176 46.8281 12.4813 46.8311 14.3522C46.8391 19.262 46.8393 24.5084 46.8315 30.3915C46.8292 32.08 45.6995 33.3017 44.0199 33.4316C42.9264 33.5159 41.7602 33.546 40.2399 33.5294C40.1513 33.5281 40.0919 33.5331 40.053 33.5385C40.0485 33.5757 40.0449 33.6325 40.047 33.7151C40.0799 35.0315 40.1094 36.5612 40.0401 38.0575C40.0347 38.1758 40.0339 38.2978 40.033 38.4212C40.0264 39.2668 40.0154 40.6821 38.2657 40.9898C38.2265 40.9967 38.1874 41 38.1489 41H38.1489Z" fill="#6A6C77"></path>
    <path d="M24.7862 14.1605H7.22528V15.5006H24.7862V14.1605Z" fill="#6A6C77"></path>
    <path d="M24.7862 17.2155H7.22528V18.5555H24.7862V17.2155Z" fill="#6A6C77"></path>
    <path d="M38.0514 40.9408C37.9446 40.9408 37.8362 40.9152 37.7354 40.8612C37.6165 40.7975 37.4821 40.7378 37.3398 40.6745C36.9828 40.5157 36.5782 40.3357 36.2564 40.0133C34.5187 38.2728 32.4778 36.2059 30.5155 34.0721C30.1278 33.6507 29.7739 33.5129 29.097 33.5306C27.9607 33.5587 26.8098 33.5528 25.6967 33.5472C25.234 33.5449 24.7713 33.5426 24.3088 33.5426C23.9388 33.5426 23.6387 33.2426 23.6387 32.8725C23.6387 32.5025 23.9388 32.2025 24.3088 32.2025C24.7735 32.2025 25.2385 32.2048 25.7034 32.2072C26.807 32.2128 27.9478 32.2185 29.0641 32.1909C29.8092 32.1721 30.6825 32.2739 31.5019 33.165C33.4477 35.2809 35.4767 37.3356 37.2047 39.0666C37.3505 39.2125 37.6098 39.3279 37.8844 39.45C38.0426 39.5203 38.206 39.5931 38.3684 39.6801C38.6947 39.8549 38.8173 40.2609 38.6425 40.5872C38.5217 40.8125 38.2905 40.9408 38.0514 40.9408V40.9408Z" fill="#6A6C77"></path>
    <path d="M20.7776 20.4609H7.22528V21.801H20.7776V20.4609Z" fill="#6A6C77"></path>
    <path d="M20.7776 23.5156H7.22528V24.8557H20.7776V23.5156Z" fill="#6A6C77"></path>
    <path d="M40.629 16.2607H33.5665V17.6008H40.629V16.2607Z" fill="#6A6C77"></path>
    <path d="M40.629 19.3156H33.7574V20.6556H40.629V19.3156Z" fill="#6A6C77"></path>
    <path d="M40.6289 22.5609H33.9482V23.901H40.6289V22.5609Z" fill="#6A6C77"></path>
    <path d="M40.6289 25.6156H33.9482V26.9557H40.6289V25.6156Z" fill="#6A6C77"></path>
</svg>