<svg width="48" height="48" viewBox="0 0 48 48" class="icon-cart" version="1.1"

    xmlns="http://www.w3.org/2000/svg">
    <path d="M18.1131 26.2729C17.6725 26.2729 17.3132 25.9178 17.3089 25.4761C17.3046 25.0318 17.6613 24.6682 18.1057 24.6639L21.4163 24.633C24.2962 24.6067 27.1761 24.5802 30.0559 24.5455C31.2007 24.5316 32.3939 24.4939 33.7039 24.4301C34.3171 24.4004 34.637 24.2688 34.9207 23.1948C35.7719 19.9711 36.5416 17.0625 37.3377 14.1121C37.4147 13.8271 37.4295 13.6769 37.4302 13.6052C37.3745 13.5825 37.2643 13.5473 37.0614 13.5146C36.911 13.4903 36.7189 13.4981 36.5155 13.5065C36.3954 13.5115 36.2756 13.5162 36.1566 13.5162C33.7717 13.5162 31.024 13.51 28.1837 13.5037C23.3573 13.4931 18.3663 13.4821 14.3556 13.4982H14.3523C13.9094 13.4982 13.5496 13.1402 13.5478 12.697C13.546 12.2528 13.9047 11.8911 14.3489 11.8893C18.3645 11.873 23.3582 11.8839 28.1873 11.8948C31.0263 11.9011 33.7728 11.9072 36.1566 11.9072C36.2538 11.9072 36.3514 11.903 36.4493 11.8989C36.7106 11.8883 37.0071 11.8761 37.3178 11.9261C37.8208 12.0073 38.4434 12.1706 38.7974 12.7182C39.1597 13.279 39.0481 13.9495 38.891 14.5313C38.096 17.4778 37.327 20.3842 36.4762 23.6056C36.1898 24.6907 35.6246 25.9477 33.782 26.0373C32.4525 26.1019 31.24 26.1402 30.0752 26.1542C27.194 26.189 24.3126 26.2155 21.4312 26.242L18.121 26.2729H18.1132H18.1131Z" fill="currentColor"></path>
    <path d="M26.3866 30.9851C24.6248 30.9851 22.8632 30.985 21.1012 30.9846C19.0361 30.9842 18.2418 30.3888 17.7015 28.4361C17.583 28.0078 17.8339 27.5646 18.2622 27.4462C18.6911 27.3278 19.1338 27.5787 19.2521 28.0069C19.5989 29.2603 19.7544 29.3754 21.1016 29.3757C24.1851 29.3761 27.2688 29.3762 30.3529 29.376L34.3178 29.3759C34.762 29.3759 35.1223 29.736 35.1223 30.1804C35.1223 30.6247 34.762 30.9848 34.3178 30.9848L30.3529 30.985C29.031 30.9851 27.7087 30.9851 26.3866 30.9851H26.3866Z" fill="currentColor"></path>
    <path d="M18.4768 29.0261C18.1399 29.0261 17.8261 28.813 17.7136 28.476C17.2398 27.0556 16.4402 23.9131 15.5938 20.5861C14.6095 16.7177 13.4939 12.333 12.8825 10.6923C12.5611 9.82995 12.2527 9.68798 11.707 9.70784C11.0062 9.73366 10.3106 9.69325 9.63789 9.65364C9.34923 9.63669 9.06079 9.61963 8.77213 9.60807C8.32837 9.59033 7.98292 9.21604 8.00065 8.77205C8.01839 8.32795 8.3975 7.98565 8.83678 8.00046C9.13509 8.01236 9.43363 8.02987 9.73239 8.04749C10.3963 8.08643 11.0233 8.12336 11.6468 8.10001C13.6023 8.02426 14.1963 9.6102 14.3902 10.1306C15.0317 11.8524 16.1103 16.0907 17.1531 20.1894C17.9922 23.4872 18.7845 26.602 19.24 27.9669C19.3805 28.3883 19.1529 28.844 18.7313 28.9846C18.6469 29.0128 18.561 29.0261 18.4768 29.0261V29.0261Z" fill="currentColor"></path>
    <path d="M21 40C19.3457 40 18 38.6542 18 36.9999C18 35.3458 19.3457 34 21 34C22.6543 34 24 35.3458 24 36.9999C24 38.6542 22.6543 40 21 40ZM21 35.5887C20.2219 35.5887 19.5887 36.2218 19.5887 36.9999C19.5887 37.7782 20.2219 38.4113 21 38.4113C21.7781 38.4113 22.4113 37.7782 22.4113 36.9999C22.4113 36.2218 21.7781 35.5887 21 35.5887Z" fill="currentColor"></path>
    <path d="M32 40C30.3457 40 29 38.6542 29 36.9999C29 35.3458 30.3457 34 32 34C33.6543 34 35 35.3458 35 36.9999C35 38.6542 33.6543 40 32 40ZM32 35.5887C31.2219 35.5887 30.5887 36.2218 30.5887 36.9999C30.5887 37.7782 31.2219 38.4113 32 38.4113C32.7781 38.4113 33.4113 37.7782 33.4113 36.9999C33.4113 36.2218 32.7781 35.5887 32 35.5887Z" fill="currentColor"></path>
</svg>