<svg width="32" height="32" viewBox="0 0 48 48" class="icon-account" version="1.1"
    xmlns="http://www.w3.org/2000/svg">
    <path d="M23.8647 25.7996C18.6077 25.7996 14.3306 21.8071 14.3306 16.8998C14.3306 11.9925 18.6077 8 23.8647 8C29.1217 8 33.3988 11.9925 33.3988 16.8998C33.3988 21.8071 29.1217 25.7996 23.8647 25.7996V25.7996ZM23.8647 9.70681C19.5634 9.70681 16.064 12.9335 16.064 16.8998C16.064 20.8661 19.5634 24.0928 23.8647 24.0928C28.166 24.0928 31.6653 20.8661 31.6653 16.8998C31.6653 12.9335 28.166 9.70681 23.8647 9.70681Z" fill="#2e5f59"></path>
    <path d="M37.5334 39.9999H10.1959C9.71731 39.9999 9.32916 39.6178 9.32916 39.1465C9.32916 31.2549 15.8498 24.8346 23.8647 24.8346C31.8796 24.8346 38.4002 31.2549 38.4002 39.1465C38.4002 39.6178 38.012 39.9999 37.5334 39.9999ZM11.0917 38.2931H36.6377C36.1905 31.739 30.6324 26.5414 23.8647 26.5414C17.0969 26.5414 11.5388 31.739 11.0917 38.2931Z" fill="#2e5f59"></path>
</svg>